<?xml version="1.0" encoding="UTF-8" standalone="no"?>
<!-- Created with Inkscape (http://www.inkscape.org/) -->

<svg
   width="125"
   height="125"
   viewBox="0 0 33.072916 33.072918"
   version="1.1"
   id="svg5"
   inkscape:version="1.1.2 (0a00cf5339, 2022-02-04)"
   sodipodi:docname="favicon.svg"
   xmlns:inkscape="http://www.inkscape.org/namespaces/inkscape"
   xmlns:sodipodi="http://sodipodi.sourceforge.net/DTD/sodipodi-0.dtd"
   xmlns="http://www.w3.org/2000/svg"
   xmlns:svg="http://www.w3.org/2000/svg">
  <sodipodi:namedview
     id="namedview7"
     pagecolor="#ffffff"
     bordercolor="#999999"
     borderopacity="1"
     inkscape:pageshadow="0"
     inkscape:pageopacity="0"
     inkscape:pagecheckerboard="0"
     inkscape:document-units="mm"
     showgrid="false"
     units="px"
     width="793.70081px"
     inkscape:zoom="1.7033109"
     inkscape:cx="123.58284"
     inkscape:cy="90.705696"
     inkscape:window-width="1884"
     inkscape:window-height="1027"
     inkscape:window-x="1936"
     inkscape:window-y="33"
     inkscape:window-maximized="1"
     inkscape:current-layer="layer1" />
  <defs
     id="defs2" />
  <g
     inkscape:label="Layer 1"
     inkscape:groupmode="layer"
     id="layer1">
    <g
       aria-label="ID"
       id="text2630"
       style="font-size:35.2778px;line-height:1.25;font-family:JoyPixels;-inkscape-font-specification:JoyPixels;letter-spacing:0px;stroke-width:0.226297"
       transform="matrix(0.95760533,0,0,1.4275083,0.89420217,-7.7014592)">
      <path
         d="m 5.3362881,27.116378 2.9627841,0.465088 v 0.912951 H -0.93378988 V 27.581466 L 2.0289942,27.116378 V 6.75585 L -0.93378988,6.3079873 V 5.3950364 H 8.2990722 V 6.3079873 L 5.3362881,6.75585 Z"
         style="font-family:'Liberation Serif';-inkscape-font-specification:'Liberation Serif';stroke-width:0.226297"
         id="path10560" />
      <path
         d="m 30.003189,16.781085 q 0,-4.840363 -2.618275,-7.3380587 Q 24.783865,6.9453304 19.943503,6.9453304 H 16.842915 V 26.875221 q 2.067059,0.137804 4.909264,0.137804 4.237471,0 6.235627,-2.497696 2.015383,-2.497696 2.015383,-7.734244 z M 21.045934,5.3950364 q 6.390657,0 9.474019,2.8594312 3.083363,2.8422054 3.083363,8.5610684 0,5.787764 -2.98001,8.767774 -2.962784,2.980009 -8.871127,2.980009 l -8.233783,-0.0689 H 10.555611 V 27.581468 L 13.518396,27.11638 V 6.75585 L 10.555611,6.3079873 V 5.3950364 Z"
         style="font-family:'Liberation Serif';-inkscape-font-specification:'Liberation Serif';stroke-width:0.226297"
         id="path10562" />
    </g>
  </g>
</svg>
